<svg xmlns="http://www.w3.org/2000/svg" viewBox="0 0 500 500"><g id="freepik--background-complete--inject-6"><rect x="66.11" y="291.36" width="26.48" height="11.19" style="fill:#ebebeb"></rect><rect x="51.34" y="305.47" width="26.48" height="11.19" style="fill:#ebebeb"></rect><rect x="258.21" y="150.47" width="26.48" height="11.19" style="fill:#ebebeb"></rect><rect x="243.44" y="164.58" width="26.48" height="11.19" style="fill:#ebebeb"></rect><rect x="228.73" y="150.47" width="26.48" height="11.19" style="fill:#ebebeb"></rect><rect x="422.18" y="305.47" width="26.48" height="11.19" style="fill:#ebebeb"></rect><rect x="407.41" y="52.3" width="26.48" height="11.19" style="fill:#ebebeb"></rect><rect x="422.18" y="66.41" width="26.48" height="11.19" style="fill:#ebebeb"></rect><rect x="51.34" y="52.3" width="26.48" height="11.19" style="fill:#ebebeb"></rect><rect x="323.95" y="132.66" width="124.82" height="8.55" style="fill:#c7c7c7"></rect><rect x="432.75" y="101.6" width="0.95" height="30.27" transform="translate(-14.42 86.27) rotate(-11.19)" style="fill:#ebebeb"></rect><rect x="419.24" y="116.56" width="31.56" height="0.95" transform="translate(223.28 514.66) rotate(-77.02)" style="fill:#ebebeb"></rect><rect x="421.59" y="116.88" width="31.52" height="0.95" transform="translate(196.91 501.07) rotate(-72.95)" style="fill:#ebebeb"></rect><rect x="434.93" y="102.21" width="0.95" height="30.07" transform="translate(-15.09 136.62) rotate(-17.53)" style="fill:#ebebeb"></rect><rect x="435.59" y="101.45" width="0.95" height="30.46" transform="matrix(1, -0.02, 0.02, 1, -2.55, 9.99)" style="fill:#ebebeb"></rect><polygon points="440.92 132.66 430.28 132.66 432.39 119.34 438.81 119.34 440.92 132.66" style="fill:#a6a6a6"></polygon><rect x="366.13" y="94.21" width="26.02" height="38.45" style="fill:#dbdbdb"></rect><rect x="373.83" y="86.44" width="10.61" height="7.77" style="fill:#a6a6a6"></rect><rect x="369.75" y="103.96" width="18.69" height="17.88" style="fill:#ebebeb"></rect><rect x="344.04" y="103.96" width="19.01" height="28.7" style="fill:#ebebeb"></rect><rect x="348.23" y="93.36" width="10.61" height="7.77" style="fill:#a6a6a6"></rect><rect x="349.64" y="101.13" width="7.79" height="2.83" transform="translate(707.08 205.09) rotate(180)" style="fill:#ebebeb"></rect><rect x="401.99" y="89.2" width="22.31" height="43.46" style="fill:#dbdbdb"></rect><rect x="408.6" y="82.54" width="9.1" height="6.66" style="fill:#c7c7c7"></rect><rect x="401.99" y="105.77" width="22.31" height="15.33" style="fill:#c7c7c7"></rect><circle cx="224.11" cy="129.16" r="7.68" style="fill:#ebebeb"></circle><rect x="223.61" width="1" height="91.87" style="fill:#c7c7c7"></rect><rect x="219.42" y="86.56" width="9.39" height="10.16" style="fill:#dbdbdb"></rect><path d="M243.33,129.16H204.9c.78-14.62,7.75-38,19.21-38S242.56,114.54,243.33,129.16Z" style="fill:#dbdbdb"></path><circle cx="275.89" cy="104.06" r="7.68" style="fill:#ebebeb"></circle><rect x="275.39" width="1" height="66.77" style="fill:#c7c7c7"></rect><rect x="271.19" y="61.47" width="9.39" height="10.16" style="fill:#dbdbdb"></rect><path d="M295.1,104.06H256.67c.78-14.61,7.75-38,19.22-38S294.33,89.45,295.1,104.06Z" style="fill:#dbdbdb"></path></g><g id="freepik--Shadow--inject-6"><ellipse cx="250" cy="446.42" rx="114.67" ry="11.55" style="fill:#ebebeb"></ellipse></g><g id="freepik--barber-shop-pole--inject-6"><rect x="65.01" y="90.05" width="40.12" height="127.93" style="fill:#fff"></rect><path d="M105.13,218,65,218.21h-.23V218L64.51,90.05v-.5H65l40.12.08h.42v.42l-.15,64.08Zm0,0-.27-64.08-.15-63.85.42.42L65,90.55l.5-.5L65.25,218l-.24-.23Z" style="fill:#dbdbdb"></path><rect x="62.39" y="83.06" width="45.35" height="6.99" style="fill:#455a64"></rect><rect x="57.89" y="76.08" width="54.37" height="6.99" style="fill:#37474f"></rect><path d="M85.07,55.27h0A20.06,20.06,0,0,0,65,75.33v.75h40.12v-.75A20.06,20.06,0,0,0,85.07,55.27Z" style="fill:#455a64"></path><rect x="62.39" y="217.98" width="45.35" height="6.99" transform="translate(170.14 442.95) rotate(180)" style="fill:#455a64"></rect><rect x="57.89" y="224.97" width="54.37" height="6.99" transform="translate(170.14 456.92) rotate(180)" style="fill:#37474f"></rect><path d="M85.07,252.76h0a20.06,20.06,0,0,0,20.06-20.06V232H65v.74A20.06,20.06,0,0,0,85.07,252.76Z" style="fill:#455a64"></path><polygon points="90.08 90.05 65.02 100.5 65.02 90.05 90.08 90.05" style="fill:#37474f"></polygon><polygon points="105.13 106.46 65.01 123.18 65.01 110.86 105.13 94.15 105.13 106.46" style="fill:#407BFF"></polygon><polygon points="105.13 129.14 65.01 145.85 65.01 133.54 105.13 116.82 105.13 129.14" style="fill:#37474f"></polygon><polygon points="105.13 151.82 65.01 168.53 65.01 156.22 105.13 139.5 105.13 151.82" style="fill:#407BFF"></polygon><polygon points="105.13 174.5 65.01 191.21 65.01 178.89 105.13 162.18 105.13 174.5" style="fill:#37474f"></polygon><polygon points="105.13 197.17 65.01 213.89 65.01 201.57 105.13 184.85 105.13 197.17" style="fill:#407BFF"></polygon><polygon points="105.13 207.53 105.13 217.98 80.04 217.98 105.13 207.53" style="fill:#37474f"></polygon><rect x="68.74" y="98.51" width="3.65" height="111.01" style="fill:#fff"></rect></g><g id="freepik--character-2--inject-6"><path d="M360.31,263.67l-.26,1c0,.08-.05.17-.07.27-.15.57-.35,1.33-.59,2.27-.06.23-.13.48-.19.73l-.32,1.2c-.09.35-.18.72-.28,1.1-.54,2-1.18,4.5-1.92,7.34-.07.28-.14.56-.22.85-2.15,8.25-5,19.42-8.36,32.16-.21.81-.42,1.63-.64,2.45l-.55,2.14c-.22.83-.43,1.66-.65,2.49-.75,2.88-1.51,5.82-2.28,8.8q-.62,2.36-1.23,4.74c-3.18,12.29-6.53,25.25-9.81,38-.48,1.85-.95,3.69-1.43,5.53l-2.88,11.21v0c-2.09,8.11-4.09,15.94-5.95,23.23-1.24,4.88-2.41,9.52-3.5,13.84H248.73c7.78-29.07,20.44-71.3,30.76-105,9.39-30.75,16.85-54.38,16.85-54.38Z" style="fill:#37474f"></path><path d="M346.79,282.63c-1.59,5.63-3.16,11.26-4.8,16.88q-4.87,16.68-9.82,33.35-2.28,7.74-4.59,15.46-4.47,15-9,30-3.11,10.41-6.24,20.82-3.58,11.93-7.18,23.87h-2.13c1.24-3.95,2.49-7.89,3.67-11.83q5.63-18.7,11.29-37.39,4.22-13.94,8.45-27.86c.32-1,.64-2.09.95-3.13q4.5-14.76,9-29.48,2.54-8.22,5.09-16.44c1.68-5.36,3.59-10.67,5.11-16.07C347.25,278.63,347.58,279.83,346.79,282.63Z" style="fill:#263238"></path><path d="M303.6,263.67C308,298,316.51,362.45,322.68,409.19c14.43-56.63,37.63-145.52,37.63-145.52Z" style="fill:#263238"></path><path d="M394.29,423H329.57c-.27-11.58-.61-24.62-.94-37.07v0c-.39-14.35-.77-27.93-1.05-37.62-.06-2-.11-3.85-.16-5.5-.13-4.42-.22-7.44-.25-8.52h0c0-.28,0-.43,0-.43l-1.11-.67c-2.66-1.6-5.07-2.95-7.2-4.08l-.7-.36c-2.68-1.4-4.88-2.43-6.47-3.14-1.91-.84-3-1.22-3-1.22l-.21-.6c-.58-1.71-1.12-3.48-1.62-5.27-7-24.24-8.48-54.85-8.48-54.85h87.17s1.48,24.5,3.28,56.28C390.73,352.92,393,393.71,394.29,423Z" style="fill:#37474f"></path><path d="M385.13,423H384q-1.94-38.49-3.18-77c-.81-23.81-1.43-47.62-2.14-71.43,0-.34.51-.31.52,0,1.39,42.11,2.86,84.22,4.75,126.31C384.24,406.54,384.64,414.1,385.13,423Z" style="fill:#263238"></path><path d="M305.58,322.56a140.55,140.55,0,0,1,21.57,11.3c.27.17.07.59-.22.45-7.28-3.54-14.72-6.94-21.79-10.88A.49.49,0,0,1,305.58,322.56Z" style="fill:#263238"></path><path d="M305.16,296.59c.49,2.69,1.14,5.34,1.72,8,.55,2.5.95,5,1.61,7.53a12.89,12.89,0,0,0,3.5,6.31c1,.91,2.07,1.71,3.11,2.55.57.45,1.18.88,1.76,1.34-.07-.35-.13-.72-.2-1.08-.18-1-.35-2-.52-3.05-.38-2.26-.74-4.53-1.09-6.79-.68-4.45-1.3-9-2.23-13.36a.14.14,0,0,1,.27-.07c1.11,4.37,2.34,8.69,3.3,13.1.48,2.16,2.17,12.82,2.24,13.57s.14,1.56.17,2.35a9.11,9.11,0,0,1,0,2.39c0,.2-.28.16-.36,0h0a9.68,9.68,0,0,1-.68-2.32c-.19-.76-.37-1.53-.5-2.3-.05-.28-.09-.57-.13-.85-1.05-.64-2-1.49-3-2.2s-2.14-1.51-3.14-2.35a12.11,12.11,0,0,1-3.83-6,43.1,43.1,0,0,1-1.25-7.66c-.34-3-.59-6.08-1-9.1C304.85,296.49,305.12,296.41,305.16,296.59Z" style="fill:#263238"></path><path d="M324.06,190.32c-7.46,23.88-25.75,74.89-38.52,84-9.24,6.6-54.88.71-69.65-2.89-14.25-3.48,1.8-43.58,10.24-41.78,13.64,2.9,34.47,7.4,38.57,5.69,2.87-1.2,28.12-29.13,47.22-52.22C325.1,167.2,327.66,178.78,324.06,190.32Z" style="fill:#d3766a"></path><path d="M284,212.56,311,242.2s10.71-26.82,16.06-46.91,2-32.91-12.85-17.39S284,212.56,284,212.56Z" style="fill:#dbdbdb"></path><polygon points="326.48 168.51 325.38 168.53 326.67 168.2 326.48 168.51" style="fill:#c7c7c7"></polygon><path d="M327,195.29C321.67,215.38,311,242.2,311,242.2L293.1,222.55,324.93,171C330.26,171.28,330.67,181.6,327,195.29Z" style="fill:#c7c7c7"></path><path d="M290.85,208.05c2.11,2,4,4.18,5.93,6.33s3.75,4.23,5.61,6.36c3.76,4.31,7.54,8.6,11,13.19a.12.12,0,0,1-.18.16c-4.08-4-7.79-8.37-11.54-12.69q-2.78-3.21-5.51-6.45c-1.86-2.2-3.79-4.38-5.45-6.75A.12.12,0,0,1,290.85,208.05Z" style="fill:#263238"></path><path d="M202.53,267.51c7.56,3.78,26.05,5.46,30.66,4.16s8.53-32.65,5-36.12-29.93-14.23-38.36-12.42S194.7,263.59,202.53,267.51Z" style="fill:#d3766a"></path><path d="M234,232.93s-7.4-8.13-11.17-17.06c-3.16-7.5-7-19-11.11-17.46-8.41,3.18,1.19,31.87,1.19,31.87s6.27,12,14.89,9.56A8.87,8.87,0,0,0,234,232.93Z" style="fill:#d3766a"></path><path d="M213.39,223c.24,4.48-3.44,4.44-3.44,4.44l-24.73,3.07s-19.23-2.65-19.13-7.77c.19-8.83,40.23-3.45,43.83-3.56C211.85,219.07,213.28,221,213.39,223Z" style="fill:#d3766a"></path><path d="M219.81,245.94c.77-2.42,1.18-5.09-.69-7.89-.08-.62.48-.86.38-1.15a7.51,7.51,0,0,0-2.51-2.23c-.38-.06-.76.64-1.07.49-4.25-2-8.4-1-9.34-1.06-1.14-.09-4.84-3.48-7-6.33a17.9,17.9,0,0,1-3.13-10.22s-22.61-18.73-42.52-26.24l-.63.73,41.47,33.5a31,31,0,0,0,7.8,10c.39.34.54.57.49,1.47s-2.22,7.24,3.31,11.68S218.47,250.11,219.81,245.94Zm-14.5-4.17a5.65,5.65,0,0,1,6.78-5.36c3.68.54,6,3,5.92,6.21-.15,4.33-3.92,5.83-6.54,5.63C208.6,248,205.1,245.33,205.31,241.77Z" style="fill:#37474f"></path><path d="M197.14,222.65l-7.29-1.06-14.56-11.77,13.23,1.62c4.86,3.58,7.91,6.11,7.91,6.11A14.74,14.74,0,0,0,197.14,222.65Z" style="fill:#263238"></path><path d="M154.72,192.11c1.85.76,3.65,1.61,5.45,2.47s3.56,1.79,5.31,2.74q5.25,2.85,10.3,6.06c3.35,2.17,6.66,4.4,9.84,6.8.79.6,1.6,1.18,2.38,1.81l2.34,1.85c.78.62,1.54,1.27,2.3,1.92l2.27,1.94c-3.12-2.48-6.24-5-9.48-7.27s-6.51-4.57-9.87-6.7-6.77-4.18-10.23-6.13S158.33,193.8,154.72,192.11Z" style="fill:#455a64"></path><path d="M204.87,217.23c3.58-.2,8.56.39,9.37,1.2s3.62,6.6,9.18,7a9.57,9.57,0,0,0,9-4.61c1.61-2.56,2.82-1.83,4.69-1.94a11.09,11.09,0,0,0,6.63-3.17c1.75-1.87.23-4-1.94-1.83a6.82,6.82,0,0,1-6.58,2.11c-2.56-.38-3.19-6.22-10.1-7.23s-10.37,4.48-11,5.11-.92.66-1.42.58A31.05,31.05,0,0,0,200,215l-52.44-9.59-.14,1c18.68,10.2,47.62,15.11,47.62,15.11A18,18,0,0,1,204.87,217.23Zm12.81-.77a5.66,5.66,0,0,1,6.79-5.36c3.68.54,6,3,5.92,6.21-.15,4.33-3.92,5.83-6.54,5.62C221,222.71,217.48,220,217.68,216.46Z" style="fill:#455a64"></path><path d="M190.47,216.41a1.51,1.51,0,1,0-1,1.88A1.51,1.51,0,0,0,190.47,216.41Z" style="fill:#c7c7c7"></path><path d="M190.05,216.53a1.08,1.08,0,0,0-1.33-.72,1.07,1.07,0,1,0,1.33.72Z" style="fill:#ebebeb"></path><path d="M148.14,206.09q2.79,1.23,5.62,2.35t5.67,2.19c3.8,1.42,7.63,2.76,11.5,4,1.92.64,3.87,1.2,5.81,1.8s3.9,1.12,5.86,1.62l3,.77,3,.7,1.48.35,1.49.32,3,.64c-4-.69-8-1.47-11.92-2.48l-1.48-.36-1.48-.4-2.93-.8c-1.95-.59-3.9-1.14-5.84-1.77-3.86-1.26-7.7-2.59-11.48-4.08S151.79,207.87,148.14,206.09Z" style="fill:#263238"></path><path d="M232.28,220a9.63,9.63,0,0,1-3.4,3.82,8.49,8.49,0,0,1-9.8-.46,15.19,15.19,0,0,1-3.48-3.85c-.24-.34-.47-.74-.71-1a2.78,2.78,0,0,0-1-.64,10.93,10.93,0,0,0-2.44-.63,34.64,34.64,0,0,0-5.09-.34,16.94,16.94,0,0,0-5,.73,14.52,14.52,0,0,0-4.64,2.1,10.91,10.91,0,0,1,2.18-1.36,20.58,20.58,0,0,1,2.4-.94,17.29,17.29,0,0,1,5.09-.85,30.74,30.74,0,0,1,5.16.29,11.16,11.16,0,0,1,2.53.63,3.15,3.15,0,0,1,1.15.74c.31.37.5.72.75,1.08a14.77,14.77,0,0,0,3.36,3.77,8.37,8.37,0,0,0,4.63,1.78,8.5,8.5,0,0,0,4.85-1.18A9.84,9.84,0,0,0,232.28,220Z" style="fill:#263238"></path><path d="M210,227.39s8.62,1.09,9.57,6c.91,4.68-6.16,5.22-6.67,5.26.46.06,8.35,1.27,8.81,6.25.47,5.18-6.72,4.5-7.18,4.45.41.19,5.81,2.84,5.3,6.7-.89,6.64-14.89.26-19.88,2.37,0,0,2.61,8.87,2.63,9.14,0,0-13.45-5.8-15.92-12.69a4.68,4.68,0,0,1,1.83-5.57s-4.54-1.39-5-5.3c-.25-2,2.75-4.18,2.75-4.18s-3.59-1.27-3.8-4.77a4.79,4.79,0,0,1,2.8-4.71C192.26,226.27,210,227.39,210,227.39Z" style="fill:#d3766a"></path><path d="M185.66,230.11c-.08,0-.12-.09,0-.12,7.47-3.22,16.67-4.46,24.65-2.67.26.06,1.12,1,.83.92C203.65,227.05,194,228,185.66,230.11Z" style="fill:#263238"></path><path d="M186,239.74c-.09,0-.13-.13,0-.16,7.71-3.27,18.11-4.39,27.06-1.24.31.11.48.51.12.41C207.07,237.11,193.56,237.8,186,239.74Z" style="fill:#263238"></path><path d="M215,249.74c-8.71-2.69-17.4-2.31-26.28-.64-.11,0-.13-.15,0-.19,4.12-2,9.89-2.48,14.4-2.47a24,24,0,0,1,12,3C215.27,249.51,215.21,249.79,215,249.74Z" style="fill:#263238"></path><path d="M210.06,227.29c.32.07-.46.7-.14.78,3.38.9,9.35,2.81,9.24,5.73-.09,2.34-3.3,3.84-4.76,3.93l-3.66.23,3.52,1.06a14.92,14.92,0,0,1,4.39,2.09,5.37,5.37,0,0,1,2.47,3.64,3.06,3.06,0,0,1-1.9,3.36,9.21,9.21,0,0,1-4.63.47l-4.32-.51,3.9,1.89a13.88,13.88,0,0,1,3,2,5.87,5.87,0,0,1,1.93,2.74,2.79,2.79,0,0,1-.81,2.81,6.09,6.09,0,0,1-3.26,1,48,48,0,0,1-7.54-.31c-1.26-.11-2.54-.22-3.82-.27a9.16,9.16,0,0,0-3.79.45,9.75,9.75,0,0,1,3.77-.1c1.25.15,2.51.35,3.76.56a40.75,40.75,0,0,0,7.69.72,7.11,7.11,0,0,0,3.95-1.11,3.9,3.9,0,0,0,1.34-4.09,7.08,7.08,0,0,0-2.3-3.47,15.43,15.43,0,0,0-3.33-2.24l-.42,1.38a10.63,10.63,0,0,0,5.48-.51,4.47,4.47,0,0,0,2.25-2,5.07,5.07,0,0,0,.5-2.94,6.79,6.79,0,0,0-3.13-4.6,16.05,16.05,0,0,0-4.87-2.23l-.14,1.29c1.85-.18,5.62-1.46,6.22-5.07C220.75,229.15,211.73,227.48,210.06,227.29Z" style="fill:#263238"></path><path d="M393.45,309.14c-.27.27-110.86-7.3-111.79-8.5-1.29-1.7,33.71-114.08,42.48-130.59,3.74-7,21.62-8.05,28.69-1.4,17.7,16.65,30,70.46,32.6,86.6C389.73,281.84,394.44,308.17,393.45,309.14Z" style="fill:#dbdbdb"></path><path d="M363.25,260.92c.94,3.68,25.38,10.79,25.93,11.08s1.3,4.67,1.3,4.67-23.94.76-25.2.86,9.8,143,9.19,144.47-54.78-1-71.74-3.5-52.38-7.86-52.63-9.31,33.66-122.87,39.49-143.8,19.41-56.89,20.1-56.75c.87.17,29.47.69,32.5,1.4C343.34,210.31,362.31,257.24,363.25,260.92Z" style="fill:#263238"></path><path d="M308.56,213.33s11.28-37.29,12.61-40a19.56,19.56,0,0,1,4.37-5.22l-13,45.36Z" style="fill:#407BFF"></path><path d="M312.25,211.5a1.09,1.09,0,1,1-.83-1.44A1.18,1.18,0,0,1,312.25,211.5Z" style="fill:#263238"></path><path d="M334.8,214.51l6,.48s6.13-29.5,7.31-35.31a68.77,68.77,0,0,1,3.8-11.81,6.45,6.45,0,0,0-4.19-2.22s-4.76,12.79-6.37,20C339.92,191.9,334.8,214.51,334.8,214.51Z" style="fill:#407BFF"></path><path d="M339.85,212.05a1.44,1.44,0,1,1-1.44-1.45A1.44,1.44,0,0,1,339.85,212.05Z" style="fill:#263238"></path><rect x="322.71" y="285.07" width="18.06" height="9.61" transform="translate(670.78 571.17) rotate(178.53)" style="fill:#455a64"></rect><polygon points="322.32 294.92 322.44 299.52 329.41 306.27 334.9 306.13 341.51 299.03 341.39 294.43 322.32 294.92" style="fill:#dbdbdb"></polygon><polygon points="332.08 351.25 334.53 351.19 334.9 306.13 329.41 306.27 332.08 351.25" style="fill:#dbdbdb"></polygon><polygon points="304.37 283.86 318.28 282.1 317.96 280.23 304.28 283.33 304.37 283.86" style="fill:#407BFF"></polygon><polygon points="304.69 285.73 318.6 283.96 318.28 282.1 304.6 285.2 304.69 285.73" style="fill:#407BFF"></polygon><polygon points="305.01 287.59 318.92 285.83 318.6 283.96 304.92 287.06 305.01 287.59" style="fill:#407BFF"></polygon><polygon points="305.33 289.46 319.24 287.69 318.92 285.83 305.24 288.93 305.33 289.46" style="fill:#407BFF"></polygon><polygon points="305.65 291.32 319.55 289.56 319.24 287.69 305.56 290.8 305.65 291.32" style="fill:#407BFF"></polygon><polygon points="305.97 293.19 319.87 291.43 319.55 289.56 305.88 292.66 305.97 293.19" style="fill:#407BFF"></polygon><polygon points="306.29 295.05 320.19 293.29 319.87 291.43 306.2 294.53 306.29 295.05" style="fill:#407BFF"></polygon><polygon points="306.61 296.92 320.51 295.16 320.19 293.29 306.52 296.39 306.61 296.92" style="fill:#407BFF"></polygon><polygon points="306.93 298.79 320.83 297.02 320.51 295.16 306.84 298.26 306.93 298.79" style="fill:#407BFF"></polygon><polygon points="307.25 300.65 321.15 298.89 320.83 297.02 307.16 300.12 307.25 300.65" style="fill:#407BFF"></polygon><polygon points="307.57 302.52 321.47 300.75 321.15 298.89 307.48 301.99 307.57 302.52" style="fill:#407BFF"></polygon><polygon points="307.88 304.38 321.79 302.62 321.47 300.75 307.8 303.86 307.88 304.38" style="fill:#407BFF"></polygon><polygon points="308.2 306.25 322.11 304.49 321.79 302.62 308.12 305.72 308.2 306.25" style="fill:#407BFF"></polygon><polygon points="308.52 308.11 322.43 306.35 322.11 304.49 308.43 307.59 308.52 308.11" style="fill:#407BFF"></polygon><polygon points="308.84 309.98 322.75 308.22 322.43 306.35 308.75 309.45 308.84 309.98" style="fill:#407BFF"></polygon><polygon points="309.16 311.85 323.07 310.08 322.75 308.22 309.07 311.32 309.16 311.85" style="fill:#407BFF"></polygon><polygon points="309.48 313.71 323.39 311.95 323.07 310.08 309.39 313.18 309.48 313.71" style="fill:#407BFF"></polygon><polygon points="309.8 315.58 323.71 313.81 323.39 311.95 309.71 315.05 309.8 315.58" style="fill:#407BFF"></polygon><polygon points="327.54 346.2 329.9 345.8 320.37 279.82 316.29 280.52 327.54 346.2" style="fill:#407BFF"></polygon><rect x="340.98" y="283.37" width="18.06" height="9.61" transform="translate(654.74 623.88) rotate(-171.7)" style="fill:#455a64"></rect><polygon points="339.88 291.55 339.21 296.1 344.93 303.94 350.37 304.73 358.09 298.86 358.75 294.31 339.88 291.55" style="fill:#407BFF"></polygon><polygon points="339.94 348.72 342.36 349.07 350.37 304.73 344.93 303.94 339.94 348.72" style="fill:#407BFF"></polygon><path d="M353.22,316.16s-15.64,4-37.35.06c0,0-1.62,32.57-.7,34.41s13.54,7,18.14,7.48,19.36-3.79,21.49-6.57S353.22,316.16,353.22,316.16Z" style="fill:#37474f"></path><path d="M363.22,200.93c0,20.62-9.57,75.47-25.43,82.93-14.06,6.61-48.79-21.23-60-28-5.56-3.34,14.45-46.86,19.86-42.5,7.26,5.84,26.08,22.87,27.92,21.67,2-1.32,7.55-14.54,21.61-43.62C360.42,164,363.22,188,363.22,200.93Z" style="fill:#d3766a"></path><path d="M207,194.43a7,7,0,0,0-4.24-3.39,13.07,13.07,0,0,0-3.25-.45h0c3.13-.57,5.13-3.21,6.42-5.36s-.32-6.59-.32-6.59,4,4.2,3.31,7.15-4,5.16-4,5.16a7.3,7.3,0,0,0,4.33-.89c1.73-1.19,1.59-5.25,1.59-5.25S212.94,192.93,207,194.43Z" style="fill:#263238"></path><path d="M249.55,201l-.15.27-6,10.11-.19-.11,5.48-10.37-.43-.24-5.95,10.11-.19-.11,5.48-10.36-.43-.24-5.94,10.1-.19-.1,5.47-10.37-.42-.24-5.95,10.1-.19-.1,5.47-10.37-.43-.24L239.1,209l-.2-.1,5.49-10.36-.44-.25L238,208.36l-.19-.11,5.48-10.36-.44-.25-5.94,10.11-.19-.11,5.48-10.36-.43-.24-5.95,10.1-.19-.11,5.48-10.36-.43-.24-5.95,10.1-.19-.1L240,196.06l-.43-.24-5.94,10.11-.2-.11,5.48-10.36-.43-.24-5.94,10.1-.2-.11,5.48-10.36-.43-.24-5.95,10.1-.19-.11,5.49-10.36-.44-.24-5.94,10.11-.19-.11,5.47-10.37-.42-.24L229.3,203.5l-.19-.11L234.58,193l-.43-.23-5.94,10.1-.19-.11,5.48-10.36-.44-.24-5.93,10.1-.2-.1,5.48-10.37-.44-.24L226,201.67l-.19-.1,5.48-10.37-.43-.24-5.95,10.11-.19-.11,5.48-10.36-.43-.25-6,10.11-.19-.11L229.14,190l-.43-.25-5.94,10.11-.19-.11,5.47-10.36-.43-.24-5.94,10.1-.2-.1L227,188.77l-.43-.24-5.95,10.1-.19-.1,5.49-10.36-.44-.25L219.5,198l-.19-.11,5.47-10.36-.43-.25-5.94,10.11-.19-.11L223.69,187l-.42-.24-6,10.1-.19-.11,5.48-10.36-.44-.24-5.94,10.1-.2-.1,5.49-10.37-.44-.24-5.94,10.11-.19-.11,5.48-10.37-.43-.23L214.05,195l-.19-.11,5.48-10.36-.43-.24L213,194.38l-.19-.11,5.48-10.36-.43-.24-5.94,10.11-.19-.11,5.47-10.37-.43-.24-5.94,10.11-.2-.11,5.48-10.37-.43-.24-5.94,10.11-.2-.11L215,182.09l-.44-.24L208.61,192l-.19-.1,5.48-10.37-.44-.24-5.94,10.1-.19-.1,5.47-10.37-.42-.24-5.95,10.1-.19-.1,5.48-10.36-.44-.25-5.94,10.11-.19-.11,5.48-10.36-.44-.25-5.93,10.11-.2-.11,5.48-10.36-.43-.24-6,10.1-.19-.1,5.48-10.37-.43-.24-6,10.1-.19-.1,5.48-10.36-.43-.25L201,187.7l-.19-.11,5.47-10.36-.43-.24-5.94,10.1-.19-.11,5.47-10.36-.43-.24-5.94,10.1-.2-.11L204.1,176l-.44-.24-5.94,10.11-.19-.11L203,175.4l-.44-.24-5.94,10.11-.19-.11,5.47-10.37-.42-.23-6,10.1-.19-.11,5.48-10.36-.43-.24-6,10.1-.19-.11,5.48-10.36-.44-.24-5.93,10.1-.2-.1L198.65,173l-.43-.24-5.95,10.11-.19-.11,5.48-10.37-.43-.24-5.95,10.11-.19-.11,5.48-10.36-.43-.25-5.94,10.11-.19-.1,5.47-10.37-.42-.24L189,181l-.19-.1,5.47-10.37-.43-.24-5.94,10.1-.2-.1,5.49-10.36-.44-.25-5.94,10.11-.19-.11,5.48-10.36-.44-.25-5.94,10.11-.19-.11L191,168.72l.15-.27a6.67,6.67,0,0,1,9.09-2.58L247,191.93A6.67,6.67,0,0,1,249.55,201Z" style="fill:#407BFF"></path><path d="M300.72,216.08S287.29,204.27,278.15,197c-5.1-4.08-14.47-10.3-19.59-11.58-7.66-1.92-40.9-5-41.83,3-.85,7.29,28.05,6.35,28.05,6.35s-29.24-1.63-28.65,7.32,33.11,3.56,33.11,3.56-30.09-1-28,8.13c1.56,6.9,31.29,3.67,31.29,3.67s-25.87-.68-24.56,6.49c1.44,7.92,29.06,6.66,29.06,6.66,6.39,17.67,16.06,24.14,24.45,26.72C283.43,257.88,300.72,216.08,300.72,216.08Z" style="fill:#d3766a"></path><path d="M253.55,194.6c-21.45-2.84-32.84,2.33-32.51,2.25,7.8-1.79,20.14-1.95,23.58-1.94s5.49-.18,8.93-.17C253.64,194.74,253.63,194.62,253.55,194.6Z" style="fill:#263238"></path><path d="M255.12,207.08c-10.06-2-22-1-26.08,0-.32.08-.21.19.13.18,4.38-.1,21.59-.2,26-.1C255.19,207.19,255.19,207.09,255.12,207.08Z" style="fill:#263238"></path><path d="M257.2,217.73c-9.13-1.12-13.34-.7-20.19.6-.32.07-.15.25.2.23,6.7-.33,12-.63,20-.6C257.31,218,257.34,217.74,257.2,217.73Z" style="fill:#263238"></path><path d="M259.08,235.62a46.3,46.3,0,0,0,2.62,4.66,47.2,47.2,0,0,0,3.06,4.35,39.67,39.67,0,0,0,7.5,7.43,23.14,23.14,0,0,0,2.17,1.49l1.12.69c.39.22.79.4,1.18.6l1.17.6a13.06,13.06,0,0,1,1.19.76c.75.5,1.48,1,2.21,1.53,2.92,2.06,5.82,4.15,8.66,6.34-1.54-.92-3-1.88-4.57-2.82l-4.52-2.88-2.26-1.44c-.35-.22-.79-.51-1.08-.65l-1.23-.59c-.4-.2-.82-.39-1.22-.6l-1.16-.71a21.76,21.76,0,0,1-2.26-1.52,35,35,0,0,1-7.51-7.77A39,39,0,0,1,259.08,235.62Z" style="fill:#263238"></path><path d="M327.83,228.8l33.84,21.43s3.21-28.71,3-49.49-6.84-32.26-17-13.36S327.83,228.8,327.83,228.8Z" style="fill:#dbdbdb"></path><path d="M332.39,223c2.6,1.26,5.06,2.82,7.53,4.31s4.84,2.93,7.24,4.41c4.87,3,9.75,6,14.37,9.37a.12.12,0,0,1-.13.2c-5.08-2.64-9.91-5.69-14.77-8.72q-3.6-2.24-7.16-4.52c-2.43-1.56-4.92-3.08-7.2-4.84A.12.12,0,0,1,332.39,223Z" style="fill:#263238"></path><path d="M362.26,240.94c.21-3,.47-5.93.75-8.88.57-6,.91-12,1.57-18,0-.08.13-.08.13,0,0,3.59-.2,7.17-.43,10.76.38-1.64.76-3.28,1.19-4.9,0-.1.19-.08.17,0-.18,1.2-.4,2.39-.69,3.57-.24.95-.5,1.9-.76,2.85q-.19,2.85-.38,5.68c-.19,3-.5,5.92-.74,8.88-.13,1.61-1,7.95-1.15,9,0,.15-.25.14-.24,0C361.8,248.32,362.15,242.45,362.26,240.94Z" style="fill:#263238"></path><path d="M331.42,186.15c5.69-.35,13.32-12.26,14.93-19.92.11-.53-2-5.08-4.35-10.72-1.39-3.43-2.87-7.29-4-10.9-.22-.74-2.34,1.38-2.34,1.38l-4.33,2.55L317,157s4.51,6.9,6.38,13.21a8,8,0,0,1,.29,1.53c0,.07,0,.16,0,.26C324.15,174.93,325.91,186.48,331.42,186.15Z" style="fill:#d3766a"></path><path d="M323.71,171.71c0,.07,0,.16,0,.26a14.81,14.81,0,0,0,2.37-.58c15.16-5,11.2-24.94,11.2-24.94l-5.95,2.09L317,157s4.51,6.9,6.38,13.21A8,8,0,0,1,323.71,171.71Z" style="fill:#263238"></path><path d="M331.5,115.82c2.61,1.76,10.13.27,12.73-3.9,3.57-5.73-4-14.45-10.66-10.76S329.49,114.47,331.5,115.82Z" style="fill:#263238"></path><path d="M342.05,102.35a13.47,13.47,0,0,1,3.48,5.55,5.07,5.07,0,0,1-1.72,5.55,12.49,12.49,0,0,1-2.74,1.7,13.92,13.92,0,0,1-3.06,1.08,11.09,11.09,0,0,1-6.51-.41,9.69,9.69,0,0,0,6.66,1.26,13,13,0,0,0,3.35-1,12.46,12.46,0,0,0,3-1.82,6.24,6.24,0,0,0,2-3,6,6,0,0,0-.19-3.6A11.34,11.34,0,0,0,342.05,102.35Z" style="fill:#263238"></path><path d="M334.56,119.39c4.49,7.54,6,32.15,1.48,38.83C329.5,167.9,315.92,172,307,163.5c-8.68-8.25-10-40.36-4.75-46.73C310,107.4,327.92,108.25,334.56,119.39Z" style="fill:#d3766a"></path><path d="M315.13,140.38c0-.06.14.07.14.14.05,1.66.4,3.56,1.93,4,.05,0,.05.1,0,.09C315.35,144.48,314.92,142,315.13,140.38Z" style="fill:#263238"></path><path d="M316.5,138.56c2.65-.38,3.21,4.95.75,5.3S314.27,138.87,316.5,138.56Z" style="fill:#263238"></path><path d="M305.73,141.06c0-.06-.12.09-.12.16.23,1.64.21,3.57-1.23,4.27,0,0,0,.11,0,.09C306.2,145.13,306.2,142.58,305.73,141.06Z" style="fill:#263238"></path><path d="M304.07,139.49c-2.68.07-2.33,5.42.15,5.35S306.32,139.42,304.07,139.49Z" style="fill:#263238"></path><path d="M318.35,135.9c-.75-.11-1.42-.33-2.15-.51a3.63,3.63,0,0,1-2.08-.94,1.13,1.13,0,0,1,0-1.38,2.81,2.81,0,0,1,2.79-.59A4.19,4.19,0,0,1,319.5,134,1.21,1.21,0,0,1,318.35,135.9Z" style="fill:#263238"></path><path d="M301.73,137c.72-.2,1.36-.5,2.06-.77a3.57,3.57,0,0,0,1.95-1.19,1.14,1.14,0,0,0-.21-1.37,2.82,2.82,0,0,0-2.84-.24,4.13,4.13,0,0,0-2.34,1.84A1.21,1.21,0,0,0,301.73,137Z" style="fill:#263238"></path><path d="M318.83,154.86c-.35.43-.69,1-1.29,1.12a4.29,4.29,0,0,1-1.81-.23.06.06,0,0,0-.07.09,2.25,2.25,0,0,0,2.19.68,1.77,1.77,0,0,0,1.15-1.6C319,154.82,318.88,154.8,318.83,154.86Z" style="fill:#263238"></path><path d="M316.58,150.1a5.66,5.66,0,0,1-3.49,2.89,7.22,7.22,0,0,1-2,.31,1.7,1.7,0,0,1-.39,0h-.37a.43.43,0,0,1-.37-.34h0a1,1,0,0,1,0-.17h0v-.15c-.17-1.27-.25-3.21-.25-3.21-.44.28-2.7,1.59-2.73.92-.25-5.53-.52-11.69.4-17.25a.16.16,0,0,1,.31,0c.45,5.31,0,10.67.32,16a10.09,10.09,0,0,1,2.57-1.09c.19,0,.09,3.77.21,4.33a.12.12,0,0,0,0,.06c2.16.05,3.7-.76,5.63-2.41C316.52,149.86,316.66,150,316.58,150.1Z" style="fill:#263238"></path><path d="M311.76,152.57a6.67,6.67,0,0,0,2.88,1.8,3.06,3.06,0,0,0,1.84-.08c1.28-.49,1.19-1.7.84-2.71a7.36,7.36,0,0,0-.76-1.52A8.69,8.69,0,0,1,311.76,152.57Z" style="fill:#263238"></path><path d="M314.64,154.37a3.06,3.06,0,0,0,1.84-.08c1.28-.49,1.19-1.7.84-2.71A3.13,3.13,0,0,0,314.64,154.37Z" style="fill:#ff98b9"></path><path d="M338.73,144.8c-.55-.59-8.32-9.06-11.32-13.61-1.65-2.5-1.66-13-1.66-13.29a7.4,7.4,0,0,1,2.5-4.68,17.58,17.58,0,0,1,6.31,6.17C337.35,124.07,339,135.34,338.73,144.8Z" style="fill:#263238;opacity:0.30000000000000004"></path><path d="M334.25,139.82s3.63-8.85,7.53-7.72,2.37,13.12-1.36,15.56a4.26,4.26,0,0,1-6.06-1Z" style="fill:#d3766a"></path><path d="M341.26,135.52c.06,0,.09.07,0,.11-2.6,1.8-3.5,4.79-3.94,7.77.61-1.25,1.64-2.09,3.28-1.39.09,0,0,.17,0,.17A2.61,2.61,0,0,0,338,143.7a12.65,12.65,0,0,0-.83,2.57c-.08.29-.57.25-.54-.06,0,0,0-.05,0-.07C335.74,142.51,337.43,136.77,341.26,135.52Z" style="fill:#263238"></path><path d="M331.2,113.49c3.18,2.19-5.47,7.44-6.9,7.9s.12-2.91.12-2.91-4.19,6.18-7.39,7.71a24.07,24.07,0,0,1-7.12,1.86l4-5.17s-8,7.72-13.14,9.12a15.43,15.43,0,0,0-7.87,5.06s-2.18-11.87.48-15.88a35.67,35.67,0,0,1,6.23-7l-6.54,1.89s4.85-4.31,8.55-5.61,11.79-1.58,11.79-1.58l-5.4-2s4.7-1.82,8.48-1.2a60.15,60.15,0,0,1,9.89,3.13l-4-2.66s3.45-.38,5.28,1.2S331.2,113.49,331.2,113.49Z" style="fill:#263238"></path><path d="M323.42,151a8.3,8.3,0,0,0-5.88-3,13,13,0,0,0-7.42,1.17c-3,1.52-3.54,3.72-3.21,7.48s1.9,9.4,3.34,10.57,7,3,10.76,2.2A16,16,0,0,0,328.9,165C330.36,163.23,324.92,152.86,323.42,151Zm-1.72,6.77a9.33,9.33,0,0,1-4.38,2c-2.11.43-5.07.28-5.87-.32s-1.76-4.09-1.94-6,.1-3.08,1.78-3.86a7.59,7.59,0,0,1,4.11-.6,4.72,4.72,0,0,1,3.26,1.56C319.49,151.45,322.51,156.81,321.7,157.74Z" style="fill:#263238"></path><path d="M323.28,170.11l7.17,13.26,15.26-19.55,5.53,5.08s-13.7,29.86-13.95,28.61l-7.09-11.33-7.32,9.28-1.71-21Z" style="fill:#dbdbdb"></path><path d="M321.45,185.13c-.17-3.48-.44-7-.44-10.45,0-.13.18-.2.23-.06,1.07,3.25,1.64,16.55,2,19.71,0,0,0,0,0,0,.3-.4,6.82-8.21,6.91-8.11,1.45,1.76,6.65,10,7,10.77,2.16-4.74,10.56-22,13.24-26.6a.12.12,0,0,1,.22.1c-1.82,5-12.89,28.22-13.1,28.18a135.67,135.67,0,0,1-7.44-12c-1.06,1.66-7.55,10.37-7.63,9.86A105.79,105.79,0,0,1,321.45,185.13Z" style="fill:#263238"></path></g><g id="freepik--character-1--inject-6"><path d="M301.91,423H138.73c-.91-.83-1.75-1.68-2.54-2.54-8.72-9.5-10.85-20.5-10.41-30,0,0,0,0,0,0a60.92,60.92,0,0,1,5.76-22.81l1.08,0,1.24,0,.84,0,1,0,54.4-1.62.61,0h.41l5.75-.17h.35l2.08-.06,2.52-.08,1.18,0s-.07,1.24-.11,3.07c0,.74,0,1.58,0,2.48s0,1.7.06,2.59v0a36.73,36.73,0,0,0,.62,5.9,5.68,5.68,0,0,0,1.38,3.13c.28.23,2.54.6,6.2,1.16l1.27.19,1.38.21,5.66.88.62.09.21,0c3.39.54,7.19,1.18,11.25,1.93l1.44.27c1.34.25,2.71.52,4.1.8l.63.12c2.35.48,4.76,1,7.19,1.54,1,.22,2,.44,3,.68,3.07.72,6.18,1.51,9.27,2.36,20.39,5.65,39.92,14.2,44.13,27.12A20.91,20.91,0,0,1,301.91,423Z" style="fill:#37474f"></path><path d="M156.14,423h-2.43a35.12,35.12,0,0,1-9.7-7.13,34.19,34.19,0,0,1-8.26-15.71c-.14-.54-.26-1.09-.37-1.64l-.21-1.11a53.17,53.17,0,0,1-.74-7.38h0a66.06,66.06,0,0,1,.12-6.75,92.78,92.78,0,0,1,1.15-9.7l.18-1a.12.12,0,0,1,.23.05l-.18,1c-.29,1.58-.56,3.17-.71,4.76a75.72,75.72,0,0,0-.29,11.67h0a52.09,52.09,0,0,0,1.15,8.35c.12.57.26,1.13.41,1.69s.35,1.24.54,1.85a33.21,33.21,0,0,0,14.05,18.4A43.17,43.17,0,0,0,156.14,423Z" style="fill:#263238"></path><path d="M298.58,423H119.19c-4-10.89-4.1-22.38-2.89-32.1h0a97.38,97.38,0,0,1,6.06-23.81l10.2-.3,1.25,0h.42l1,0,55-1.63.43,0h.58l5.5-.17h.83l1.85-.06,2.52-.07s-.06.3-.18.85c-.22,1.06-.66,3-1.31,5.61-.47,1.85-1,4-1.74,6.35q-.33,1.14-.69,2.34c-.39,1.23-.79,2.5-1.23,3.79-.26.77-.53,1.54-.81,2.32h0c-.39,1.11-.81,2.22-1.25,3.34l-.12.33,0,.12,1.87.36.27.05,2.23.45c2.41.49,5.74,1.18,9.76,2.08l1.17.26c2.52.57,5.29,1.21,8.25,1.92l4.42,1.08,1.26.31,2.91.74c2.13.54,4.32,1.12,6.55,1.72l1.46.39.54.15c3.42.93,6.95,1.93,10.53,3,14.36,4.24,29.64,9.51,42.87,15.69l.21.1C292.27,419.69,295.52,421.33,298.58,423Z" style="fill:#37474f"></path><path d="M208.59,384.36a37.26,37.26,0,0,0-6.74,2.16c-2.29.87-4.54,1.86-6.74,2.93a134.37,134.37,0,0,0-12.59,7.13c-.13.08,0,.25.13.19,4.3-2.24,8.75-4.25,13.2-6.17l6.43-2.77a68.8,68.8,0,0,0,6.51-2.88C209.06,384.8,208.91,384.3,208.59,384.36Z" style="fill:#263238"></path><path d="M203.82,364.71c-.91,3.63-1.71,7.3-2.75,10.9-.48,1.65-.95,3.33-1.57,4.93-.53,1.35-1.33,2.9-2.89,3.2-1.81.35-2.32-1.19-2.17-2.68.16-1.67.59-3.33.91-5,.38-1.89.76-3.77,1.11-5.67.17-.94.35-1.89.51-2.84,0-.24.21-2.05.34-2.57,0,0,.05.09.1.08h.07a.13.13,0,0,0,.11-.09.25.25,0,0,0-.09-.28.15.15,0,0,0-.17,0c-.34.19-.37.66-.48,1-.29.92-.59,1.84-.86,2.77-.5,1.73-1,3.47-1.43,5.22s-.87,3.5-1.3,5.25a8.18,8.18,0,0,0-.36,4,3.09,3.09,0,0,0,2.86,2.32c-.06.12-.14.24-.19.36-.16.36-.28.74-.41,1.1s-.27.75-.38,1.14a3.45,3.45,0,0,0-.1.56c0,.21,0,.42,0,.63a.31.31,0,0,0,.57.2,5.65,5.65,0,0,1,.34-.51,3.2,3.2,0,0,0,.26-.6c.12-.37.22-.73.32-1.1s.2-.74.27-1.11,0-.45.07-.67a4.18,4.18,0,0,0,2.09-.8,7,7,0,0,0,2.17-3.32c.55-1.51,1-3.08,1.4-4.63a68.74,68.74,0,0,0,2.32-11.71A.34.34,0,0,0,203.82,364.71Z" style="fill:#263238"></path><path d="M156.48,373.6c-.33,1.81-.53,3.63-.95,5.42s-.88,3.49-1.46,5.2a18.92,18.92,0,0,1-2.21,4.68,17.41,17.41,0,0,1-3.53,3.59,30.16,30.16,0,0,1-8.53,4.75,39.52,39.52,0,0,1-4.74,1.39c-.84.19-1.69.34-2.54.45a5.25,5.25,0,0,0-2,.47.42.42,0,0,0,0,.71c1.09.53,2.61.24,3.77.12a27.78,27.78,0,0,0,4-.71,29.54,29.54,0,0,0,7.62-3.22,24.07,24.07,0,0,0,6.37-5.21,18,18,0,0,0,3.4-7.47,36.49,36.49,0,0,0,1.11-10.14A.18.18,0,0,0,156.48,373.6Z" style="fill:#263238"></path><path d="M130.09,423h-.82a59.83,59.83,0,0,1-4.58-18.21,92.78,92.78,0,0,1-.21-14.24h0c.34-6.4,1.14-12.79,1.88-19.16,0-.15.24-.1.22,0-.33,2.77-.67,5.55-1,8.33-.35,3.49-.62,7.1-.73,10.75,0,0,0,0,0,0C124.54,401.65,125.6,413.16,130.09,423Z" style="fill:#263238"></path><path d="M298.4,423h-.85a345.12,345.12,0,0,0-35.72-15.23q-8-2.91-16-5.39-5.22-1.62-10.5-3.05l-.53-.14-1.48-.4q-3.33-.88-6.67-1.69l-2.75-.66-1.25-.29-3.2-.71-1.32-.28c-2.76-.59-5.53-1.13-8.31-1.65l-1.27-.23q-4.73-.85-9.46-1.64L195,391h0c-.54-.09-.4-1,.15-1l1.37.16.31,0,2.17.26c3.36.43,6.71.95,10,1.54l1.11.21q4.16.75,8.28,1.65l3.87.86,1.28.3q2.46.59,4.92,1.21,2.64.66,5.26,1.37l.74.2.78.21,3.29.91c2.53.72,5.06,1.46,7.58,2.25a297.87,297.87,0,0,1,34.32,12.92q4.18,1.88,8.27,3.91l.21.1C292.09,419.69,295.25,421.34,298.4,423Z" style="fill:#263238"></path><path d="M218.42,383.41c-2.44,2.22-106.54,8.25-107,7.56s23.32-112.46,60.8-127.89c5.94-2.44,21.78-1.6,23.59.61C210.84,282.05,220,382,218.42,383.41Z" style="fill:#ebebeb"></path><polygon points="187.94 289.12 192.66 280.17 199.28 286.98 197.92 294 191.6 295 187.94 289.12" style="fill:#263238"></polygon><polygon points="191.6 295 190.67 366.35 202.28 382.47 210.87 362.8 197.92 294 191.6 295" style="fill:#263238"></polygon><path d="M111.42,391c.46.7,104.56-5.35,107-7.56,1.41-1.26-6.06-84.71-18.83-113.2,1.88,8.62,5.41,29,1,45.24a183.24,183.24,0,0,1-31.66-50.74C133.35,285,111,390.38,111.42,391Z" style="fill:#a6a6a6"></path><path d="M190.79,279.23c-5.83.65-14.5-9.2-17.49-16.68-.2-.52,1.16-5.5,2.52-11.63.81-3.72,1.63-7.89,2.1-11.74L201.38,248s-3.36,7.79-4.14,14.52a8.63,8.63,0,0,0,0,1.6,2.4,2.4,0,0,1,0,.27C197.33,267.45,196.42,278.6,190.79,279.23Z" style="fill:#f7a9a0"></path><path d="M179.51,239.77c.16,5.66,1.72,22.49,15.2,24.45a16.11,16.11,0,0,0,2.51.16,2.25,2.25,0,0,1,0-.26,7.17,7.17,0,0,1,0-1.6c.77-6.73,4.14-14.52,4.14-14.52Z" style="fill:#263238"></path><path d="M169.59,216.13c-1.26,8.94,7.14,32.87,14.07,37.41,10.06,6.57,24.58,5.06,29.68-6.58,4.94-11.29-6.56-42.28-14.12-46.21C188.07,195,171.44,202.92,169.59,216.13Z" style="fill:#f7a9a0"></path><path d="M212.66,226.86c2,7.93,2.62,15.7.59,20.25-5.16,11.61-19.7,13-29.71,6.39-2-1.35-4.17-4.35-6.17-8.18a93.53,93.53,0,0,1-3.21-12.43c-.3-2.41,4.28-2.53,4.28-2.53.48,2.54,3.17,7.53,5.38,9.06,3.7,2.57,9.85.41,11.94-.51s5.8-4.23,10.48-4.24c2.08,0,4.26.89,5.8-.51S212.72,227.23,212.66,226.86Z" style="fill:#263238;opacity:0.30000000000000004"></path><path d="M197.28,227.58c0-.05-.09.13-.07.19.65,1.57,1.13,3.48-.11,4.54,0,0,0,.11,0,.09C198.8,231.49,198.15,229,197.28,227.58Z" style="fill:#263238"></path><path d="M195.24,226.46c-2.62.76-.9,6,1.53,5.25S197.45,225.82,195.24,226.46Z" style="fill:#263238"></path><path d="M206.11,224.46c0-.07.15,0,.17.1.48,1.63,1.31,3.41,2.94,3.46.05,0,.07.09,0,.1C207.38,228.46,206.3,226.08,206.11,224.46Z" style="fill:#263238"></path><path d="M207,222.3c2.53-1.05,4.45,4.08,2.11,5S204.87,223.19,207,222.3Z" style="fill:#263238"></path><path d="M192.41,224.76a21.68,21.68,0,0,0,1.78-1.38c.67-.53,1.27-.89,1.54-1.75a1.15,1.15,0,0,0-.61-1.27,2.9,2.9,0,0,0-2.85.63,4.23,4.23,0,0,0-1.73,2.49A1.24,1.24,0,0,0,192.41,224.76Z" style="fill:#263238"></path><path d="M208.14,219c-.76.12-1.48.1-2.25.15a3.66,3.66,0,0,1-2.31-.29,1.14,1.14,0,0,1-.38-1.36,2.86,2.86,0,0,1,2.54-1.41,4.17,4.17,0,0,1,2.95.72A1.23,1.23,0,0,1,208.14,219Z" style="fill:#263238"></path><path d="M199.65,242.4c.46.34.93.84,1.54.81a4.32,4.32,0,0,0,1.76-.65.06.06,0,0,1,.08.08,2.27,2.27,0,0,1-2,1.18,1.81,1.81,0,0,1-1.51-1.32C199.46,242.4,199.59,242.35,199.65,242.4Z" style="fill:#263238"></path><path d="M200.15,237.1a5.81,5.81,0,0,0,4.47,1.23,7.84,7.84,0,0,0,2-.56c.13-.05.58-.27.7-.34a.42.42,0,0,0,.2-.47h0l-1.24-3.41c.52.08,3.18.35,2.93-.29-2.1-5.25-4.42-11.1-7.62-15.89a.16.16,0,0,0-.28.14c1.81,5.13,4.52,9.91,6.42,15a9.9,9.9,0,0,0-2.85.07c-.09,0,1.63,4.14,1.63,4.18-2,1-3.77.84-6.26.11C200.1,236.85,200,237,200.15,237.1Z" style="fill:#263238"></path><path d="M205.64,237.29a6.83,6.83,0,0,1-1.95,2.84,3,3,0,0,1-1.73.67c-1.38.08-1.79-1.09-1.88-2.16a7.59,7.59,0,0,1,.08-1.72A8.86,8.86,0,0,0,205.64,237.29Z" style="fill:#263238"></path><path d="M203.69,240.13a3,3,0,0,1-1.73.67c-1.38.08-1.79-1.09-1.88-2.16A3.14,3.14,0,0,1,203.69,240.13Z" style="fill:#ff9cbd"></path><path d="M176.26,235.32c4.22-1.13,1.68-11.48,1.68-11.48s6.28-2.5,7.65-12.08c0,0,9.45,3.56,16.22.85,10.61-4.24,7.4-18.5,2.68-20.58-6.68-2.94-15.86,5.2-15.86,5.2S172,196,169.46,207.65a8.25,8.25,0,0,0-5.87,9.6C164.68,225.1,173.11,236.15,176.26,235.32Z" style="fill:#263238"></path><path d="M176.66,225.38a14.85,14.85,0,0,0,7.32-6.17c1.68-3,2.16-7.07.55-10.15-.09-.17.19-.3.27-.12,1.52,3.48,2.06,7.26.37,10.8a10.32,10.32,0,0,1-8.42,5.95C176.58,225.7,176.48,225.45,176.66,225.38Z" style="fill:#263238"></path><path d="M162.1,212.81c1.61-3.19,4.84-4.29,8.13-4.84.19,0,.24.27.05.29-3.3.29-6.11,3.1-7.25,6.08s-.09,6.1,1.16,8.82a23.37,23.37,0,0,0,11.91,11.77.08.08,0,0,1-.06.14,23.4,23.4,0,0,1-13.29-12.84C161.58,219.34,160.62,215.76,162.1,212.81Z" style="fill:#263238"></path><path d="M188.3,197.83a11,11,0,0,1,5.11-5.86,13.1,13.1,0,0,1,9.33-.93,7.39,7.39,0,0,1,5.07,5.41c.8,2.94,0,6-1.23,8.72a.07.07,0,0,1-.12,0,13.12,13.12,0,0,0,.75-7.85,6.82,6.82,0,0,0-5.14-5.11c-4.93-1.09-11.48.58-13.5,5.78A.15.15,0,0,1,188.3,197.83Z" style="fill:#263238"></path><path d="M178.11,235.18s-7-7-10.22-4.32,3,13.39,7.5,14.21a4.37,4.37,0,0,0,5.35-3.35Z" style="fill:#f7a9a0"></path><path d="M169.75,233.9c-.06,0-.06.1,0,.12,3.18.67,5.24,3.14,6.84,5.8-1.08-.94-2.39-1.33-3.67,0-.07.07,0,.18.11.15a2.68,2.68,0,0,1,3.08.4,12.67,12.67,0,0,1,1.81,2.11c.19.24.64,0,.49-.28l0-.06C177.77,238.32,173.88,233.55,169.75,233.9Z" style="fill:#263238"></path><path d="M197.14,263.07l-5.23,14.42-18.3-17.4-4.81,6s18.27,28,18.34,26.72l5.44-12.47,8.76,8.25-1.42-21.4Z" style="fill:#ebebeb"></path><path d="M201.24,277.92c-.36-3.53-.61-7.09-1.13-10.59,0-.13-.22-.18-.24,0-.59,3.44.83,16.91.92,20.15l0,0c-.37-.36-8.11-7.24-8.18-7.13-1.2,2-5.2,11.07-5.47,11.89-2.89-4.44-13.94-20.6-17.32-24.79a.12.12,0,0,0-.21.13c2.58,4.72,17.22,26.48,17.43,26.41a138,138,0,0,0,5.69-13.17c1.32,1.51,9.16,9.31,9.16,8.78A110,110,0,0,0,201.24,277.92Z" style="fill:#263238"></path><path d="M162.82,277.6c-17,32.45-36.62,80.8-26.07,91.35s43.55,27.28,69,28c4.93.13,11-42,5.74-42.39C197.8,353.59,171.19,342,169.14,340c-1-1,9.1-38.36,11.13-59C182.71,256,173,258.19,162.82,277.6Z" style="fill:#f7a9a0"></path><path d="M195.74,352.74s2.6.43,16.7.44c9.75,0,33.49,6.27,43.46,31.79,3.81,9.78-1.38,16.73-7.15,7.28-4.07-6.66-6.31-11.63-8.25-13.43,0,0-1.48,11.85-7.57,15.13a128.94,128.94,0,0,1-16.54,7.42,25.61,25.61,0,0,1-1.67-3A14.55,14.55,0,0,1,199.41,396Z" style="fill:#f7a9a0"></path><path d="M221.74,354.68c3.85,3.36,11.88,10.63,16.39,18.86,5,9.14,12.17,28.1,5.38,31.72-5,2.66-8.35-4.34-8.35-4.34s1.32,8.46-3.7,9.88c-4.58,1.29-6.86-4.28-6.86-4.28s-.09,5.27-4.74,5.66c-5.58.48-4.49-10.64-10.56-15.05C207.93,396.14,221.74,354.68,221.74,354.68Z" style="fill:#f7a9a0"></path><path d="M227.59,377.21c3.09,3.76,7.94,14.1,7.69,23.53,0,.21-.17.32-.21.13a101.9,101.9,0,0,0-7.57-23.61C227.47,377.21,227.55,377.17,227.59,377.21Z" style="fill:#263238"></path><path d="M218.5,382.53c2.34,3.52,6.87,14.4,6.28,23.94,0,.22-.18.32-.21.12a109.74,109.74,0,0,0-6.16-24C218.39,382.52,218.47,382.49,218.5,382.53Z" style="fill:#263238"></path><path d="M202.42,351.17,192,399.09s-53.44-20.09-58-33,11.51-60.59,27.43-88.38,20.81-15.62,19.55,5.84-10.37,53.79-10.06,55.16S202.42,351.17,202.42,351.17Z" style="fill:#a6a6a6"></path><path d="M193.47,351c-2.55,10.42-4.68,20.95-6.8,31.47-.6,3-1.15,5.95-1.79,8.92a.08.08,0,0,0,.15,0c1.28-5.21,2.7-10.38,3.91-15.61s2.32-10.49,3.3-15.77c.55-3,1.12-6,1.58-9A.18.18,0,0,0,193.47,351Z" style="fill:#263238"></path><path d="M179.93,302.55q-.72,2-1.47,4c-.2.55-.42,1.11-.64,1.67.34-1.79.67-3.57,1-5.36.4-2.46.83-4.93,1.11-7.41,0-.08-.12-.11-.14,0-1.21,4.2-2.08,8.5-3,12.77s-1.71,8.67-2.49,13c-.22,1.2-.41,2.41-.59,3.62a30.48,30.48,0,0,0-.45,3.55.08.08,0,0,0,.16,0A51.24,51.24,0,0,0,175,322.3c.49-2.13.9-4.27,1.34-6.41s.81-4,1.2-6a25.26,25.26,0,0,0,1.39-3.27,31.7,31.7,0,0,0,1.16-4C180.08,302.52,180,302.48,179.93,302.55Z" style="fill:#263238"></path><path d="M307.92,423h-193c-4-11.69-7.43-26-5.73-37.78,2-13.7,11.28-42.26,22.48-68,8.91-20.51,19-39.24,27.62-47.27,7.7-7.21,13.3-10.42,13.75-11s1.27-4.71,1.49-5.09c0,0,.24,0,.64,0,1.32.23,4.53,1,8.16,1.91,5.71,1.46,12.45,3.29,14.38,4a1.76,1.76,0,0,1,.54.25c.39.57,2,6.29,2.21,6.7s16.25,62.48,16.91,65.14,28.1,13.09,44.23,32.82,37.88,38,40.89,45.66C304.13,414.67,306.31,419.55,307.92,423Z" style="fill:#407BFF"></path><path d="M153,279.92a14,14,0,0,0-2.76,1.38l-.19.29a13,13,0,0,0,3.27-.8,12.38,12.38,0,0,0,3.2-1.67A12.89,12.89,0,0,0,153,279.92Zm54,12-.51.36a5.61,5.61,0,0,0,.59-.06C207,292.08,207,292,207,291.88Zm-29,19.34a13.32,13.32,0,0,0-3.21,1.68,12.33,12.33,0,0,0,3.54-.8,12.63,12.63,0,0,0,3.2-1.69A13,13,0,0,0,178,311.22ZM163,354.4a12.38,12.38,0,0,0-3.2,1.67,13.81,13.81,0,0,0,6.72-2.49A12.55,12.55,0,0,0,163,354.4Zm-24.72-30.25a12.39,12.39,0,0,0-3.19,1.69,12.54,12.54,0,0,0,3.52-.81,12.15,12.15,0,0,0,3.2-1.69A12.61,12.61,0,0,0,138.25,324.15Zm25.57,57.93a12.25,12.25,0,0,0-3.19,1.69,12.55,12.55,0,0,0,3.52-.82,11.86,11.86,0,0,0,3.2-1.69A12.62,12.62,0,0,0,163.82,382.08Zm32.69,18.63a12.88,12.88,0,0,0-3.19,1.69,12.55,12.55,0,0,0,3.52-.82,12.11,12.11,0,0,0,3.2-1.68A12.61,12.61,0,0,0,196.51,400.71Zm-1.24-47.56a12.52,12.52,0,0,0-3.19,1.68,14,14,0,0,0,6.72-2.5A12.62,12.62,0,0,0,195.27,353.15Zm31.67,21.16a12.71,12.71,0,0,0-3.19,1.69,12.57,12.57,0,0,0,3.51-.82,12,12,0,0,0,3.21-1.68A12.27,12.27,0,0,0,226.94,374.31ZM256,358.71a9.63,9.63,0,0,0-.94.63,9,9,0,0,0,1.39-.2ZM279.49,398a12.55,12.55,0,0,0-3.19,1.69,12.55,12.55,0,0,0,3.52-.82,11.86,11.86,0,0,0,3.2-1.69A12.62,12.62,0,0,0,279.49,398ZM135.23,355.53a13.3,13.3,0,0,0-1.69-3.2,12.62,12.62,0,0,0,.82,3.53,12,12,0,0,0,1.68,3.2A12.35,12.35,0,0,0,135.23,355.53Zm5.5,30.14a12.92,12.92,0,0,0-1.68-3.2,13,13,0,0,0,.81,3.53,12.51,12.51,0,0,0,1.69,3.21A12.69,12.69,0,0,0,140.73,385.67ZM112.24,409.4a12.69,12.69,0,0,0-1.69-3.21,12.69,12.69,0,0,0,.82,3.54,11.86,11.86,0,0,0,1.69,3.2A12.62,12.62,0,0,0,112.24,409.4Zm45.06,10.65a12.75,12.75,0,0,0-1.68-3.2,12.35,12.35,0,0,0,.81,3.53,13,13,0,0,0,1.3,2.65h.34A13.59,13.59,0,0,0,157.3,420.05Zm19.86-82.76a12.15,12.15,0,0,0-1.69-3.2,12.91,12.91,0,0,0,.82,3.52,12.41,12.41,0,0,0,1.68,3.2A12.13,12.13,0,0,0,177.16,337.29Zm36.45,49.58a12.11,12.11,0,0,0-1.68-3.2,13.28,13.28,0,0,0,.81,3.52,12.77,12.77,0,0,0,1.69,3.2A12.47,12.47,0,0,0,213.61,386.87Zm12.68-32.2a11.71,11.71,0,0,0-1.69-3.2,13.09,13.09,0,0,0,.82,3.52,12.15,12.15,0,0,0,1.69,3.2A12.47,12.47,0,0,0,226.29,354.67Zm32.56,23.15a12.11,12.11,0,0,0-1.68-3.2,13.28,13.28,0,0,0,.81,3.52,12.77,12.77,0,0,0,1.69,3.2A12.47,12.47,0,0,0,258.85,377.82Zm25.6,38.11a11.92,11.92,0,0,0-1.69-3.21,13.29,13.29,0,0,0,.82,3.52,12.51,12.51,0,0,0,1.69,3.21A12.39,12.39,0,0,0,284.45,415.93Zm-122.12-118a13.22,13.22,0,0,0-1.69-3.19,12.54,12.54,0,0,0,.81,3.52,12.73,12.73,0,0,0,1.68,3.2A12.6,12.6,0,0,0,162.33,297.92Zm2.1-31.82c-.07-.17-.13-.34-.21-.51l-.75.63.08.21a12.73,12.73,0,0,0,1.68,3.2A12.26,12.26,0,0,0,164.43,266.1Zm30.35,9.34a12.63,12.63,0,0,0-1.69-3.2,12.62,12.62,0,0,0,.82,3.53,12.94,12.94,0,0,0,1.67,3.21A12.33,12.33,0,0,0,194.78,275.44Zm-8.66-17.61a13.19,13.19,0,0,0-3.45-1.06,12.52,12.52,0,0,0,3.07,1.92,12.16,12.16,0,0,0,3.45,1.07A13.19,13.19,0,0,0,186.12,257.83Zm-36.06,82.56a12.33,12.33,0,0,0-3.46-1.07,14.29,14.29,0,0,0,6.53,3A12.71,12.71,0,0,0,150.06,340.39Zm64.4-19.57a9.21,9.21,0,0,0-1.83-.43,11,11,0,0,0,2.09,1.41C214.64,321.48,214.55,321.15,214.46,320.82Zm-91.4,50.86a12.62,12.62,0,0,0-3.47-1.07,13.88,13.88,0,0,0,6.53,3A12.85,12.85,0,0,0,123.06,371.68ZM194.81,330a13,13,0,0,0-3.47-1.07,12.71,12.71,0,0,0,3.07,1.92,13.06,13.06,0,0,0,3.45,1.07A12.41,12.41,0,0,0,194.81,330ZM194,377.78a13.61,13.61,0,0,0-3.47-1.07,13.07,13.07,0,0,0,3.07,1.93,13.39,13.39,0,0,0,3.46,1.07A13,13,0,0,0,194,377.78Zm49.68-11.95a12.79,12.79,0,0,0-3.46-1.07,12.52,12.52,0,0,0,3.07,1.92,12.83,12.83,0,0,0,3.45,1.07A12.65,12.65,0,0,0,243.71,365.83Zm14.91,32.52a13.14,13.14,0,0,0-3.46-1.06,12.52,12.52,0,0,0,3.07,1.92,12.83,12.83,0,0,0,3.45,1.07A12.81,12.81,0,0,0,258.62,398.35Zm-72.5-106.29a12.47,12.47,0,0,0-3.45-1.06,12.79,12.79,0,0,0,3.07,1.91,12.5,12.5,0,0,0,3.45,1.08A12.87,12.87,0,0,0,186.12,292.06ZM140.7,302.77a12.83,12.83,0,0,0-1.07,3.45,12.47,12.47,0,0,0,1.92-3.06,12.16,12.16,0,0,0,1.07-3.45A12.89,12.89,0,0,0,140.7,302.77Zm36.6,63.45a13.86,13.86,0,0,0-1.07,3.47,13.07,13.07,0,0,0,1.93-3.07,13.39,13.39,0,0,0,1.07-3.46A13.22,13.22,0,0,0,177.3,366.22Zm22.41-56a13.2,13.2,0,0,0-1.07,3.45,12.62,12.62,0,0,0,1.93-3.06,13.19,13.19,0,0,0,1.06-3.45A12.28,12.28,0,0,0,199.71,310.22Zm8.35,55.64a13.2,13.2,0,0,0-1.07,3.45,12.56,12.56,0,0,0,1.93-3.05A13.37,13.37,0,0,0,210,362.8,12.65,12.65,0,0,0,208.06,365.86Zm31.81-20a.61.61,0,0,1-.05.12,13.06,13.06,0,0,0-1.07,3.45,12.17,12.17,0,0,0,1.92-3Zm34.95,33.76a13.08,13.08,0,0,0-1,3.32,11.52,11.52,0,0,0,1.7-2.6Zm-125.2-10.15a13.84,13.84,0,0,0-1.07,3.45,13.16,13.16,0,0,0,1.93-3.05,14,14,0,0,0,1.07-3.47A13.07,13.07,0,0,0,149.62,369.49ZM227,399.29a12.38,12.38,0,0,0-3.2,1.67,13.81,13.81,0,0,0,6.72-2.49A12.55,12.55,0,0,0,227,399.29Zm-13.35,14.09a12.83,12.83,0,0,0-1.07,3.45,13,13,0,0,0,1.93-3.06,13.37,13.37,0,0,0,1.06-3.46A12.52,12.52,0,0,0,213.66,413.38Zm27.92-25.55a13.19,13.19,0,0,0-1.06,3.45,12.85,12.85,0,0,0,1.92-3.06,13.58,13.58,0,0,0,1.07-3.47A13.13,13.13,0,0,0,241.58,387.83ZM301,407.72c-.24.42-.46.85-.66,1.28a13.06,13.06,0,0,0-1.07,3.45,12.79,12.79,0,0,0,1.92-3.05c.12-.28.24-.56.35-.84Q301.25,408.16,301,407.72ZM156,402a12.52,12.52,0,0,0-3.19,1.68,12.9,12.9,0,0,0,3.52-.81,12.45,12.45,0,0,0,3.2-1.69A12.62,12.62,0,0,0,156,402Zm-34.24-7.26a12.69,12.69,0,0,0-3.19,1.68,14,14,0,0,0,6.73-2.5A12.69,12.69,0,0,0,121.73,394.71ZM241,413a11.86,11.86,0,0,0-1.69-3.2,13.29,13.29,0,0,0,.82,3.52,12.45,12.45,0,0,0,1.69,3.2A12.47,12.47,0,0,0,241,413Zm-50.95,7a12.11,12.11,0,0,0-1.68-3.2,13.28,13.28,0,0,0,.81,3.52,14.28,14.28,0,0,0,1.31,2.66h.33A13.59,13.59,0,0,0,190,420.05Zm-15-11.29a13.1,13.1,0,0,0-3.47-1.06,12.71,12.71,0,0,0,3.07,1.92,13,13,0,0,0,3.46,1.07A13,13,0,0,0,175,408.76Zm-37.78,1.12a12.79,12.79,0,0,0-3.46-1.07,12.87,12.87,0,0,0,3.07,1.93,13.19,13.19,0,0,0,3.45,1.06A12.65,12.65,0,0,0,137.24,409.88Zm125.5,6a12.83,12.83,0,0,0-1.07,3.45,12.62,12.62,0,0,0,1.93-3.06,13.19,13.19,0,0,0,1.06-3.45A12.47,12.47,0,0,0,262.74,415.89ZM178.8,391.55a13,13,0,0,0-1.07,3.46,12.85,12.85,0,0,0,1.92-3.06,13.2,13.2,0,0,0,1.07-3.47A12.71,12.71,0,0,0,178.8,391.55ZM124.19,420a14.13,14.13,0,0,0-1,3h.29a13.91,13.91,0,0,0,1.55-2.61,13.2,13.2,0,0,0,1.07-3.47A13.07,13.07,0,0,0,124.19,420ZM211,340.62a12.14,12.14,0,0,0-1.06,3.45,12.52,12.52,0,0,0,1.92-3.07,13.2,13.2,0,0,0,1.07-3.45A12.87,12.87,0,0,0,211,340.62ZM160,321.68a12.64,12.64,0,0,0-1.08,3.47,14,14,0,0,0,3-6.53A12.93,12.93,0,0,0,160,321.68Zm14.35-44.77a12.14,12.14,0,0,0-1.06,3.45,12.65,12.65,0,0,0,1.92-3.06,13.39,13.39,0,0,0,1.07-3.46A12.87,12.87,0,0,0,174.32,276.91Z" style="opacity:0.1"></path><g style="opacity:0.1"><path d="M228.35,338.83c-2.51,6-7.83,18.35-9.94,21.2-2.81,3.79-8.43,2.77-12.65,3.13s-18.29,6.85-20,6.15,20.37-12.77,24.49-15.36,7.19-17.7,7.12-22C217.59,333,222.05,335.25,228.35,338.83Z"></path><path d="M199.16,372.69c-5.91,1.64-16.15,9.6-20.33,10.62s-.42,3.35,5.1,3.43,10.31-2,12.24-5.06,4.92-4.73,7.25-6.53S201.32,372.09,199.16,372.69Z"></path></g><path d="M174.68,259.2c2.36.38,4.68,1,7,1.62s4.52,1.18,6.78,1.78c4.56,1.23,5.74,1.54,10.2,3.11a.1.1,0,0,1-.06.19,102.79,102.79,0,0,1-10.36-2.51q-3.39-.92-6.75-1.88c-2.29-.66-4.62-1.27-6.84-2.12A.1.1,0,0,1,174.68,259.2Z" style="fill:#263238"></path><path d="M152.78,294.67a50.42,50.42,0,0,0-4.62,9.45,98.05,98.05,0,0,0-3.29,10c-.46,1.69-.83,3.41-1.15,5.12a20.84,20.84,0,0,0-.41,5.15c.27,3.46.8,7,1.27,10.44,1,7,2,13.93,3,20.89l1.53,10.45,1.46,10.46c-.7-3.45-1.32-6.92-2-10.38l-1.81-10.41q-1.74-10.41-3.24-20.88c-.45-3.5-1-7-1.19-10.53a21.75,21.75,0,0,1,.46-5.35q.52-2.61,1.29-5.15a89.56,89.56,0,0,1,3.57-10A46.78,46.78,0,0,1,152.78,294.67Z" style="opacity:0.1"></path><path d="M136.3,423H107.23L89,287.88c2.23-1.59,41-6.67,41-6.67l1.59,36,.18,4h0l1.55,35.2.31,6.9.09,2.06.06,1.36,0,.85.26,6,.43,9.64.3,6.72v0l.32,7.4.05,1.15.08,1.67.89,20.23Z" style="fill:#dbdbdb"></path><polygon points="249.38 353.95 244.54 367.43 240.58 378.46 237.03 388.33 236.01 391.17 234.79 394.57 234.13 396.42 233.7 397.61 233.28 398.78 233.27 398.82 228.95 410.84 224.57 423.03 212.01 423.03 215.3 407.94 216.76 401.24 218.08 395.19 218.14 394.93 218.37 393.87 219.93 386.72 220.18 385.6 220.24 385.33 223.5 370.36 217.98 370.56 217.97 370.56 216.56 370.62 213.09 370.74 207.31 370.96 203.5 371.1 202.84 371.12 202.26 371.14 200.48 371.21 198.05 371.3 197.32 371.33 196.28 371.36 195.16 371.41 194.33 371.44 189.89 371.6 188.88 371.64 142 373.37 140.38 373.43 135.93 373.59 135.7 373.6 134.12 373.66 133 373.7 132.62 367.66 132.57 366.81 132.36 363.46 133.37 363.38 133.67 363.35 134.15 363.31 190.77 358.71 191.68 358.64 192.51 358.57 196.21 358.27 200.96 357.88 209.81 357.17 213.1 356.9 216.65 356.61 216.66 356.61 221.22 356.24 223.3 356.07 226.08 355.84 249.38 353.95" style="fill:#a6a6a6"></polygon></g><g id="freepik--Plant--inject-6"><path d="M409,349.81C421.1,361.64,423.13,380,420.58,396c-.06.36-.63.27-.63-.08,0-3.65.11-7.27.1-10.87l-.18-.49c-3.16-2.29-6.06-4.88-7.86-8.44-2-4-2.81-8.45-4.35-12.59-.15-.4.28-.28.55-.08,7.36,5.42,9.7,11.26,11.81,19.06a64.92,64.92,0,0,0-1.28-12.14c-1.59-7.41-4.73-14.74-10.05-20.23C408.49,349.92,408.8,349.6,409,349.81Z" style="fill:#263238"></path><path d="M406.74,351.19c-2.08.07-3.38,3.39-5,4.36a1.56,1.56,0,0,1-2.3-.36c-1.61-2.24.6-5,2.67-6.55-1.48.6-2.71,1.68-4.31,2a1.49,1.49,0,0,1-1.94-1.17c-.71-3.05,3.13-4.41,5.76-4.48-1.28-.88-4.93-3.29-3-4.48s6.25,2.26,7.65,3.39c2.06,1.67,4.51,4.16,4.6,6.77C411,353.7,408.34,351.82,406.74,351.19Z" style="fill:#407BFF"></path><path d="M406.74,351.19c-2.08.07-3.38,3.39-5,4.36a1.56,1.56,0,0,1-2.3-.36c-1.61-2.24.6-5,2.67-6.55-1.48.6-2.71,1.68-4.31,2a1.49,1.49,0,0,1-1.94-1.17c-.71-3.05,3.13-4.41,5.76-4.48-1.28-.88-4.93-3.29-3-4.48s6.25,2.26,7.65,3.39c2.06,1.67,4.51,4.16,4.6,6.77C411,353.7,408.34,351.82,406.74,351.19Z" style="opacity:0.1"></path><path d="M407.34,351.7c-2.66-1.21-7.77.53-8.2-.48-.88-2.05,3.2-3.45,5.41-3.72-2-.55-5.92-1.43-5.8-3.39.14-2.38,6-.33,8.91,1.93,3.71,2.84,3.68,5.59,3.07,6.14C409.89,352.93,407.78,351.9,407.34,351.7Z" style="fill:#407BFF"></path><path d="M436.55,348.63C424,360,421.29,378.22,423.23,394.35c0,.36.61.28.63-.06.14-3.65.16-7.27.31-10.87.07-.16.13-.31.21-.48,3.24-2.17,6.23-4.65,8.17-8.13,2.16-3.89,3.13-8.34,4.83-12.42.16-.39-.27-.29-.55-.1-7.56,5.14-10.12,10.88-12.53,18.6A64.91,64.91,0,0,1,426,368.8c1.87-7.34,5.29-14.55,10.81-19.83C437.06,348.76,436.76,348.43,436.55,348.63Z" style="fill:#263238"></path><path d="M438.76,350.1c2.08.15,3.25,3.52,4.84,4.55a1.55,1.55,0,0,0,2.3-.27c1.7-2.18-.4-5-2.41-6.65,1.45.66,2.64,1.78,4.23,2.14a1.5,1.5,0,0,0,2-1.09c.81-3-3-4.53-5.59-4.69,1.31-.84,5.05-3.11,3.16-4.37s-6.34,2-7.78,3.1c-2.12,1.59-4.66,4-4.86,6.59C434.41,352.45,437.14,350.68,438.76,350.1Z" style="fill:#407BFF"></path><path d="M438.76,350.1c2.08.15,3.25,3.52,4.84,4.55a1.55,1.55,0,0,0,2.3-.27c1.7-2.18-.4-5-2.41-6.65,1.45.66,2.64,1.78,4.23,2.14a1.5,1.5,0,0,0,2-1.09c.81-3-3-4.53-5.59-4.69,1.31-.84,5.05-3.11,3.16-4.37s-6.34,2-7.78,3.1c-2.12,1.59-4.66,4-4.86,6.59C434.41,352.45,437.14,350.68,438.76,350.1Z" style="opacity:0.1"></path><path d="M438.14,350.59c2.71-1.11,7.74.83,8.22-.16.95-2-3.07-3.58-5.26-3.93,2-.48,6-1.2,5.92-3.16-.06-2.4-5.95-.56-9,1.58-3.81,2.7-3.89,5.45-3.3,6C435.55,351.72,437.7,350.77,438.14,350.59Z" style="fill:#407BFF"></path><path d="M423.73,378.66a122.4,122.4,0,0,1-3.89,18,.45.45,0,0,1-.88-.18c.83-5.54,2.33-11,3.15-16.51a83,83,0,0,0,1-17c-.52-9.33-3.06-19.26-9.15-26.56-.13-.17.15-.42.29-.26,12.19,14.22,10.25,31.65,10.24,33.21,1.73-5.88,3.51-12.63,10-18.62.28-.26.5-.14.45.3-1.17,10.92-4.2,16.62-10.53,22.45C424.23,375.23,424,377,423.73,378.66Z" style="fill:#263238"></path><path d="M413.81,338.06c-2.19-1-5.22,1.81-7.39,2a1.79,1.79,0,0,1-2.2-1.53c-.54-3.13,3.14-4.89,6.07-5.45-1.84-.12-3.66.38-5.47-.11a1.74,1.74,0,0,1-1.43-2.19c.81-3.53,5.47-3,8.23-1.75-.88-1.56-3.45-5.9-.84-6.15s5.35,5.49,6.23,7.37c1.29,2.76,2.58,6.58,1.37,9.34C417,342.81,415.15,339.52,413.81,338.06Z" style="fill:#407BFF"></path><path d="M413.81,338.06c-2.19-1-5.22,1.81-7.39,2a1.79,1.79,0,0,1-2.2-1.53c-.54-3.13,3.14-4.89,6.07-5.45-1.84-.12-3.66.38-5.47-.11a1.74,1.74,0,0,1-1.43-2.19c.81-3.53,5.47-3,8.23-1.75-.88-1.56-3.45-5.9-.84-6.15s5.35,5.49,6.23,7.37c1.29,2.76,2.58,6.58,1.37,9.34C417,342.81,415.15,339.52,413.81,338.06Z" style="opacity:0.1"></path><path d="M414.18,338.89c-2.15-2.59-8.33-3.36-8.27-4.62.11-2.57,5.06-2,7.48-1.15-1.83-1.59-5.42-4.45-4.31-6.43,1.35-2.4,6.35,2.66,8.27,6.48,2.42,4.82,1,7.66.1,7.92C416.2,341.45,414.53,339.32,414.18,338.89Z" style="fill:#407BFF"></path><path d="M431.75,381.94,437.13,423H404.41c.67-3.64,6.76-41.14,6.76-41.14Z" style="fill:#407BFF"></path></g><g id="freepik--Table--inject-6"><polygon points="47.44 423.03 98.08 422.78 148.72 422.7 250 422.53 351.28 422.69 401.92 422.78 452.56 423.03 401.92 423.27 351.28 423.36 250 423.53 148.72 423.36 98.08 423.27 47.44 423.03" style="fill:#263238"></polygon></g><g id="freepik--Tools--inject-6"><rect x="323.01" y="399.72" width="29.18" height="44.06" transform="translate(675.21 843.5) rotate(180)" style="fill:#407BFF"></rect><rect x="329.46" y="387.02" width="16.3" height="8.35" transform="translate(675.21 782.39) rotate(180)" style="fill:#a6a6a6"></rect><rect x="331.62" y="395.37" width="11.97" height="4.35" style="fill:#407BFF"></rect><path d="M326.21,443.76a9.26,9.26,0,0,0-6.63-5.63c-.55-.42-.22-1-.53-1.13a10.54,10.54,0,0,0-4-.05c-.39.21-.21,1-.6,1.09-5.43,1.27-8.42,4.83-9.33,5.4-1.11.7-7.06.55-11.22-.19s-9.1-3.84-10.64-5.79c0,0-34.88.63-58.76,8.11l0,1,63.33-1.82a41.52,41.52,0,0,0,14.71,2.48,1.69,1.69,0,0,1,1.56.8c.63.73,3.5,7.06,11.91,6.79S328.17,447.86,326.21,443.76Zm-16.4,6.45c-2.51-2.87-1.65-6.62,2.11-8.65s7.8-1.68,10.12.84c3.17,3.43.87,7.1-1.67,8.68C317.57,452.82,312.33,453.08,309.81,450.21Z" style="fill:#37474f"></path><path d="M287.8,440.92l-7.46,4-22.23.64,13.3-7.56c7.15-.48,11.86-.57,11.86-.57A16.48,16.48,0,0,0,287.8,440.92Z" style="fill:#263238"></path><path d="M225.87,445.65c2.25-.65,4.54-1.19,6.84-1.72s4.61-1,6.93-1.43c4.64-.88,9.32-1.61,14-2.2s9.42-1,14.15-1.31c1.18-.06,2.36-.16,3.54-.2l3.55-.13c1.19-.05,2.37,0,3.55-.05l3.55,0c-4.73.17-9.45.34-14.17.72s-9.42.81-14.11,1.41-9.35,1.28-14,2.09S230.44,444.54,225.87,445.65Z" style="fill:#455a64"></path><path d="M293.06,436.22c3.87-1.57,9.64-2.94,10.89-2.5s6.85,4.83,13.17,3c5.05-1.42,7.3-4.79,8-7.82s2.34-2.81,4.36-3.64a12.62,12.62,0,0,0,6-5.54c1.12-2.45-1.46-3.82-2.94-1s-3.38,3.89-6.38,4.53-6.21-4.63-14.3-2.91-9.55,8.23-10,9.07-.73,1-1.32,1.1A40.37,40.37,0,0,0,286.76,436l-62.18,11.23.26,1c25.08,2.39,59.24-4.17,59.24-4.17C285.11,441.83,289.19,437.79,293.06,436.22Zm13.85-5.68c-1.3-3.42.9-6.76,5.2-7.67s8,.52,9.23,3.56c1.71,4.14-1.83,7-4.81,7.82C313.25,435.15,308.22,434,306.91,430.54Z" style="fill:#455a64"></path><path d="M276.77,441a2,2,0,0,0-2.52-.22,1.39,1.39,0,0,0-.31,2.16,2,2,0,0,0,2.52.23A1.41,1.41,0,0,0,276.77,441Z" style="fill:#c7c7c7"></path><path d="M276.35,441.29a1.4,1.4,0,0,0-1.78-.16,1,1,0,0,0-.22,1.53,1.41,1.41,0,0,0,1.78.16A1,1,0,0,0,276.35,441.29Z" style="fill:#ebebeb"></path><path d="M225.45,447.65q3.62.08,7.23,0t7.23-.12c4.82-.14,9.64-.35,14.45-.7,2.4-.14,4.8-.36,7.21-.55s4.8-.45,7.19-.74l3.59-.41,3.58-.49,1.79-.23,1.78-.28,3.57-.54c-4.72.89-9.48,1.7-14.27,2.27l-1.79.23-1.8.2-3.6.37c-2.41.2-4.81.44-7.22.59-4.82.31-9.65.53-14.47.6S230.26,447.91,225.45,447.65Z" style="fill:#37474f"></path><path d="M324.6,428.25a9.17,9.17,0,0,1-2.11,4.91,10.5,10.5,0,0,1-4.92,3.16,11.74,11.74,0,0,1-6.14.19,19.19,19.19,0,0,1-5.51-2.28c-.41-.23-.84-.52-1.23-.7a3.77,3.77,0,0,0-1.38-.22,15.93,15.93,0,0,0-3,.35,47.85,47.85,0,0,0-5.79,1.65,22.32,22.32,0,0,0-5.26,2.63,16.73,16.73,0,0,0-4.23,3.78,11.8,11.8,0,0,1,1.83-2.12,22.94,22.94,0,0,1,7.52-4.59,42.51,42.51,0,0,1,5.83-1.72,16.63,16.63,0,0,1,3.08-.38,4.37,4.37,0,0,1,1.59.25c.5.23.86.49,1.29.73a18.51,18.51,0,0,0,5.35,2.25,11.57,11.57,0,0,0,5.9-.11,10.24,10.24,0,0,0,4.85-3A9.44,9.44,0,0,0,324.6,428.25Z" style="fill:#263238"></path><rect x="186.7" y="428.69" width="16.83" height="19.72" style="fill:#263238"></rect><rect x="185.68" y="435.64" width="18.82" height="1.97" style="fill:#263238"></rect><rect x="185.68" y="438.05" width="18.82" height="1.97" style="fill:#263238"></rect><rect x="185.68" y="440.45" width="18.82" height="1.97" style="fill:#263238"></rect><path d="M202.75,428.69H187.47s-5.18-13.6-4.22-14.84,5.52-2.91,11.86-2.91c5.93,0,10.92,1.66,11.88,2.91S202.75,428.69,202.75,428.69Z" style="fill:#407BFF"></path><path d="M202.75,428.69H187.47s-5.18-13.6-4.22-14.84,5.52-2.91,11.86-2.91c5.93,0,10.92,1.66,11.88,2.91S202.75,428.69,202.75,428.69Z" style="fill:#fff;opacity:0.5"></path><path d="M183.82,414.13c.08.23.37.28.58.37a5.27,5.27,0,0,0,.68.19c.47.12.94.2,1.41.28q1.42.22,2.85.36a52.36,52.36,0,0,0,5.73.29,55,55,0,0,0,5.74-.26,27.26,27.26,0,0,0,2.84-.38,7.28,7.28,0,0,0,2.71-.85,6.66,6.66,0,0,1-2.65,1.13c-.94.23-1.89.4-2.85.54a40.53,40.53,0,0,1-11.57,0c-1-.14-1.91-.31-2.85-.53-.47-.12-.94-.24-1.4-.4-.23-.08-.46-.16-.68-.26S183.88,414.38,183.82,414.13Z" style="fill:#407BFF"></path><path d="M188.48,428.71c-.74-1.69-1.36-3.43-2-5.16a54.74,54.74,0,0,1-1.6-5.3l1.88,5.2C187.36,425.2,188,426.94,188.48,428.71Z" style="fill:#407BFF"></path><path d="M186.7,421.63c.46,1.14.82,2.32,1.18,3.49s.68,2.36.91,3.57c-.46-1.13-.82-2.31-1.18-3.49S186.93,422.84,186.7,421.63Z" style="fill:#407BFF"></path><path d="M200.59,428.69c.58-2,1.23-3.89,1.86-5.83l1-2.9c.31-1,.64-1.94.92-2.92a44.93,44.93,0,0,1-1.62,5.91C202.06,424.88,201.39,426.81,200.59,428.69Z" style="fill:#407BFF"></path><path d="M197.66,428.69c.42-3,1.05-5.93,1.68-8.87a35.37,35.37,0,0,1-.64,4.47C198.4,425.77,198.09,427.24,197.66,428.69Z" style="fill:#407BFF"></path><path d="M191,428.69c-.42-1.45-.73-2.92-1-4.4a39.43,39.43,0,0,1-.64-4.47C190,422.76,190.62,425.7,191,428.69Z" style="fill:#407BFF"></path><path d="M197,421.41c.07,1.22,0,2.44,0,3.66s-.13,2.43-.3,3.64c-.07-1.22,0-2.44,0-3.65S196.84,422.62,197,421.41Z" style="fill:#407BFF"></path><path d="M199.75,423.08a21.92,21.92,0,0,1-.64,2.89,12,12,0,0,1-1.11,2.74c.17-.46.29-.94.43-1.41l.4-1.41C199.12,425,199.39,424,199.75,423.08Z" style="fill:#407BFF"></path><path d="M190.19,417.45c.06.94.17,1.88.27,2.82l.32,2.81c.21,1.87.46,3.75.62,5.63-.4-1.85-.66-3.72-.9-5.6A37,37,0,0,1,190.19,417.45Z" style="fill:#407BFF"></path></g></svg>